<svg xmlns="http://www.w3.org/2000/svg" viewBox="0 0 32 32" width="32" height="32">
  <path fill="#00C4CC" d="M2,16c0,7.73,6.27,14,14,14s14-6.27,14-14S23.73,2,16,2S2,8.27,2,16z M18.39,13.97 c0,2.01-1.63,3.64-3.64,3.64c-2.01,0-3.64-1.63-3.64-3.64c0-2.01,1.63-3.64,3.64-3.64C16.76,10.33,18.39,11.96,18.39,13.97z M9.42,22.14c-1.24-1.2-1.12-2.36-0.54-3.02c0.58-0.67,2.31-1.4,4.15,0.45c0.97,0.99,1.93,0.95,2.54,0.56 c0.61-0.39,0.97-1.42,0.15-2.45c-0.82-1.03-2.84-1.03-3.45-0.08c-0.38,0.59-0.49,1.25-0.18,1.92c-0.69-0.4-1.23-0.95-1.62-1.56 c-0.12-0.74,0.27-1.69,1.05-2.37c1.23-1.09,3.28-1.06,4.82,0.07c1.53,1.13,2,2.96,1.14,4.3c-0.85,1.35-2.53,1.64-3.97,0.73 c-1.44-0.91-1.47-2.2-0.77-3.11c0.61-0.79,1.5-0.95,2.24-0.3c-1.01-0.41-2.04-0.44-2.9-0.12c-0.86,0.33-1.5,1-1.81,1.96 c-0.25,0.78-0.11,1.61,0.39,2.37c-0.71-0.24-1.34-0.67-1.86-1.24c-0.2-0.22-0.37-0.46-0.51-0.72c-0.78-1.39-0.59-3.22,0.43-4.52 c1.3-1.67,3.47-2.11,5.37-1.13c2.26,1.18,3.35,3.16,3.01,4.9c-0.26,1.33-1.14,2.21-2.4,2.38c-1.26,0.17-2.53-0.28-3.49-1.22 c-0.53-0.51-0.87-1.14-1.02-1.82c-0.32,0.53-0.5,1.14-0.53,1.76c-0.05,0.9,0.23,1.76,0.82,2.46c1.05,1.23,2.76,1.85,4.53,1.65 c1.76-0.2,3.14-1.21,3.65-2.68c0.66-1.89-0.23-4.09-2.35-5.7c-2.41-1.84-5.89-1.81-7.89,0.07c-1.58,1.48-2.3,3.57-1.91,5.43 c-1.03-1.46-1.33-3.4-0.75-5.15c0.78-2.36,3.15-3.97,5.81-3.97c2.66,0,5.03,1.61,5.81,3.97C22.41,8.57,16,3,16,3 S9.59,8.57,12.56,15.03c0.58,1.26,1.43,2.23,2.44,2.92c-0.61,0.08-1.21-0.14-1.69-0.64c-1.04-1.06-0.56-2.38,0.47-2.96 c0.37-0.21,0.75-0.3,1.13-0.27c-1.36-0.19-2.76,0.4-3.45,1.68c-0.56,1.06-0.43,2.33,0.37,3.3c1.19,1.43,3.42,1.84,5.57,1.05 c2.15-0.8,3.55-2.62,3.45-4.5c-0.12-2.19-1.95-4.18-4.37-4.75c-2.41-0.57-4.9,0.37-5.98,2.25c-0.83,1.45-0.9,3.17-0.16,4.7 c-0.52-0.32-0.96-0.78-1.31-1.36c-0.7-1.17-0.71-2.64-0.05-3.98c0.66-1.33,1.94-2.33,3.43-2.67c1.49-0.34,3.02,0.01,4.15,0.96 c2.04,1.71,2.84,4.38,2.02,6.82c-0.82,2.44-3.05,4.01-5.77,4.01C13.47,23.5,11.14,22.44,9.42,22.14z"/>
</svg>
