<svg xmlns="http://www.w3.org/2000/svg" viewBox="0 0 32 32" width="32" height="32">
  <path fill="#FF4A00" d="M32,15.3c0-0.5-0.3-1-0.9-1.3c-0.6-0.2-1.2-0.1-1.6,0.3c0,0-0.8,0.9-2.9,0.9s-3.8-1.4-3.8-3.7v-0.3 c0-0.3,0-0.5,0-0.5c5.3-1,8.2-3.9,8.2-6.5c0-2.5-2.3-4.2-5.5-4.2C20.8,0,19,3.2,18,6.2c-0.3,1-0.6,2-0.9,3c-0.1,0-0.2-0.1-0.3-0.1 c-1.9-1-3.9-1.9-5.8-2.8c-0.9-0.4-1.6-0.8-2.2-0.1C8.2,6.9,8,7.7,8.2,8.4c0.2,0.7,0.8,1.2,1.5,1.4c0,0,0.9,0.2,2.2,0.6 c1.6,0.4,3,0.9,4.2,1.3c0,0-0.1,0.4-0.2,0.8C15,14.8,13.5,17,10.2,17c-2.9,0-5.4-1.6-5.4-4.9c0-0.9,0.4-1.7,1.1-2.5 c0.3-0.4,0.4-0.9,0.2-1.4C5.9,7.8,5.5,7.5,5,7.3c-0.5-0.2-1-0.1-1.5,0.2C2.6,8,2,8.8,1.6,9.6C0.5,11.7,0,14,0,16.5 c0,6.3,4.3,10.5,10.9,10.5c6.1,0,10.3-3.8,12.4-7.2C25.7,24.5,28.6,28,33,28c1,0,1.8-0.8,1.8-1.7c0-0.9-0.8-1.7-1.8-1.7 c-3.5,0-4.6-3.3-4.6-3.3l-0.1-0.3c0,0,1.7-0.4,3-1.3c1.3-0.9,1.7-1.8,1.7-2.7L32,15.3z M20.7,4.5c0.9,0,1.4,0.4,1.4,1c0,1-1,2-3.1,2.7 C19.8,5.7,20.4,4.5,20.7,4.5z"/>
</svg>
